<?xml version="1.0" encoding="utf-8"?>
<svg version="1.1" xmlns="http://www.w3.org/2000/svg" xmlns:xlink="http://www.w3.org/1999/xlink" viewBox="0 0 20 20">
<style type="text/css">
	path{fill:#aadeff;}
</style>
<path d="M19,20H1c-0.552246,0-1-0.447754-1-1V8c0-0.552246,0.447754-1,1-1s1,0.447754,1,1v10h16V8c0-0.552246,0.447754-1,1-1
	s1,0.447754,1,1v11C20,19.552246,19.552246,20,19,20z"/>
<path d="M16.36377,7.36377c-0.390625,0.390625-1.023438,0.390625-1.414062,0L11,3.414062V16c0,0.552246-0.447754,1-1,1
	s-1-0.447754-1-1V3.414062L5.050293,7.36377c-0.390625,0.390625-1.023438,0.390625-1.414062,0s-0.390625-1.023438,0-1.414062
	l5.656433-5.656433c0.092163-0.092285,0.20282-0.165344,0.325195-0.216064C9.740112,0.026611,9.869751,0,10,0
	s0.259888,0.026611,0.382141,0.077209c0.122375,0.05072,0.233032,0.123779,0.325195,0.216064l5.656433,5.656433
	C16.754395,6.340332,16.754395,6.973145,16.36377,7.36377z"/>
</svg>
